<svg width="21" height="21" viewBox="0 0 21 21" fill="none" xmlns="http://www.w3.org/2000/svg">
<path d="M10.4475 2.70025L8.47032 7.38392L6.4637 7.39659C6.13065 7.39869 5.80608 7.42571 5.49011 7.49432L6.31012 5.49077L6.34295 5.41563L6.39207 5.28209C6.41668 5.22365 6.43302 5.17359 6.45773 5.1318C7.40944 2.88595 8.48744 2.17972 10.4475 2.70025Z" fill="#1FCB4F"/>
<path d="M16.1319 7.56043L16.1152 7.55221C15.6148 7.41382 15.1064 7.34208 14.5902 7.34534L9.37794 7.37823L11.2239 3.01179L11.2485 2.95335C11.3653 2.99425 11.4906 3.05174 11.6157 3.09259L13.4607 3.85532C14.4875 4.27349 15.2063 4.71026 15.651 5.24036C15.7266 5.3398 15.7938 5.43097 15.861 5.53879C15.9367 5.65488 15.9957 5.77108 16.0298 5.89576C16.0636 5.97049 16.089 6.03694 16.1061 6.11177C16.2337 6.53562 16.2451 7.01849 16.1319 7.56043Z" fill="#1FCB4F"/>
<path d="M11.0114 15.5612L11.2195 15.5599C11.4693 15.5584 11.6761 15.3322 11.6743 15.0575C11.6721 14.7078 11.5719 14.6584 11.3549 14.5765L11.0044 14.4539L11.0114 15.5612Z" fill="#1FCB4F"/>
<path d="M15.7731 8.75335C15.3977 8.64747 15.006 8.59165 14.598 8.59423L6.47164 8.6455C5.90546 8.64908 5.37327 8.76068 4.87506 8.98031C3.43024 9.61392 2.42353 11.0608 2.43409 12.7343L2.44433 14.358C2.44559 14.5578 2.46345 14.7492 2.48969 14.9489C2.68957 17.5954 4.11396 19.002 6.76281 19.1601C6.95447 19.1839 7.14608 19.1993 7.35423 19.198L13.8487 19.157C16.9294 19.1376 18.5438 17.6619 18.6836 14.7468C18.6909 14.5885 18.6982 14.4219 18.6971 14.2554L18.6869 12.6318C18.6753 10.7917 17.4415 9.25074 15.7731 8.75335ZM11.6331 13.7587C12.0169 13.8896 12.5349 14.1694 12.5405 15.052C12.5453 15.8096 11.9579 16.4212 11.2252 16.4258L11.0171 16.4271L11.0182 16.6103C11.0198 16.8518 10.8295 17.0445 10.588 17.046C10.3465 17.0475 10.1538 16.8572 10.1523 16.6158L10.1512 16.4326L10.0762 16.4331C9.2769 16.4381 8.61488 15.7678 8.60962 14.9352C8.6081 14.6938 8.79839 14.501 9.03985 14.4995C9.28131 14.498 9.47403 14.6883 9.47555 14.9298C9.47776 15.2795 9.74603 15.5692 10.0708 15.5671L10.1457 15.5667L10.1368 14.1595L9.5026 13.9387C9.11876 13.8079 8.60074 13.5281 8.59518 12.6455C8.59039 11.8878 9.17772 11.2763 9.91043 11.2717L10.1186 11.2703L10.1174 11.0872C10.1159 10.8457 10.3062 10.653 10.5477 10.6515C10.7891 10.6499 10.9818 10.8402 10.9834 11.0817L10.9845 11.2649L11.0594 11.2644C11.8588 11.2594 12.5208 11.9296 12.526 12.7623C12.5276 13.0037 12.3373 13.1964 12.0958 13.1979C11.8544 13.1995 11.6616 13.0092 11.6601 12.7677C11.6579 12.418 11.3896 12.1283 11.0649 12.1303L10.99 12.1308L10.9989 13.5379L11.6331 13.7587Z" fill="#1FCB4F"/>
<path d="M9.46116 12.6402C9.46337 12.9899 9.5636 13.0392 9.7806 13.1211L10.1311 13.2438L10.1241 12.1364L9.91595 12.1377C9.65784 12.1394 9.45943 12.3654 9.46116 12.6402Z" fill="#1FCB4F"/>
</svg>
