<svg width="21" height="21" viewBox="0 0 21 21" fill="none" xmlns="http://www.w3.org/2000/svg">
<path d="M18.6454 6.58065C18.6489 7.13019 18.2021 7.58264 17.6526 7.58611L2.99845 7.67857C2.44891 7.68204 1.99646 7.23526 1.99299 6.68573L1.99294 6.6774C1.98091 4.7707 3.51154 3.22063 5.41825 3.2086L15.1683 3.14708C17.075 3.13504 18.6334 4.67395 18.6454 6.58065Z" fill="#1FCB4F"/>
<path d="M2.01338 9.93286L2.03971 14.1043C2.05174 16.011 3.60181 17.5416 5.50851 17.5296L15.2585 17.4681C17.1652 17.4561 18.7041 15.8976 18.6921 13.9909L18.6658 9.82779C18.6624 9.27826 18.2099 8.83148 17.6604 8.83495L3.00623 8.92741C2.4567 8.93088 2.00992 9.38333 2.01338 9.93286ZM7.03959 14.7305L5.37435 14.7411C5.03297 14.7432 4.74809 14.4619 4.74594 14.1205C4.74378 13.7792 5.02509 13.4943 5.36646 13.4921L7.03171 13.4816C7.37308 13.4795 7.65796 13.7608 7.66012 14.1021C7.66227 14.4435 7.38096 14.7284 7.03959 14.7305ZM12.4516 14.6964L9.12115 14.7174C8.77977 14.7196 8.49489 14.4383 8.49274 14.0969C8.49058 13.7555 8.77189 13.4706 9.11326 13.4685L12.4438 13.4475C12.7851 13.4453 13.07 13.7266 13.0722 14.068C13.0743 14.4094 12.793 14.6942 12.4516 14.6964Z" fill="#1FCB4F"/>
</svg>
