<svg width="21" height="21" viewBox="0 0 21 21" fill="none" xmlns="http://www.w3.org/2000/svg">
<path d="M10.7835 14.0851L11.3247 14.0817C11.8659 14.0783 12.3125 13.5925 12.3088 13.0097C12.3043 12.2853 12.0453 12.1454 11.6197 11.9982L10.7769 11.7121L10.7919 14.0851L10.7835 14.0851Z" fill="#1FCB4F"/>
<path d="M10.0606 2.41602C5.46461 2.46167 1.76637 6.22363 1.81203 10.8196C1.85768 15.4156 5.61964 19.1138 10.2156 19.0681C14.8116 19.0225 18.5098 15.2605 18.4642 10.6646C18.4185 6.0686 14.6566 2.37869 10.0606 2.41602ZM12.0203 10.8135C12.6712 11.0342 13.5485 11.5116 13.5579 13.002C13.566 14.2842 12.565 15.323 11.3328 15.3308L10.7916 15.3342L10.7946 15.8171C10.7968 16.1585 10.5155 16.4434 10.1741 16.4455C9.83271 16.4477 9.54783 16.1664 9.54567 15.825L9.54263 15.3421L9.24288 15.344C7.87738 15.3526 6.76274 14.2106 6.75381 12.7951C6.75166 12.4537 7.03296 12.1689 7.37434 12.1667C7.71571 12.1646 8.00059 12.4459 8.00275 12.7872C8.00732 13.5116 8.56058 14.0993 9.235 14.0951L9.53475 14.0932L9.51699 11.2789L8.25689 10.8372C7.60603 10.6165 6.72873 10.1391 6.71932 8.64871C6.71123 7.36647 7.71219 6.32766 8.94447 6.31989L9.48568 6.31647L9.48263 5.83355C9.48048 5.49218 9.76178 5.2073 10.1032 5.20514C10.4445 5.20299 10.7294 5.4843 10.7316 5.82567L10.7346 6.30859L11.0344 6.3067C12.3999 6.29808 13.5145 7.44012 13.5234 8.85557C13.5256 9.19695 13.2443 9.48183 12.9029 9.48398C12.5615 9.48613 12.2766 9.20483 12.2745 8.86345C12.2699 8.13907 11.7167 7.55138 11.0422 7.55563L10.7425 7.55753L10.7602 10.3718L12.0203 10.8135Z" fill="#1FCB4F"/>
<path d="M7.9765 8.64903C7.98107 9.37342 8.24008 9.51333 8.66566 9.66053L9.50845 9.94664L9.49343 7.56534L8.95222 7.56875C8.41102 7.57217 7.97277 8.05787 7.9765 8.64903Z" fill="#1FCB4F"/>
</svg>
