<svg width="21" height="21" viewBox="0 0 21 21" fill="none" xmlns="http://www.w3.org/2000/svg">
<path d="M19.0826 10.8281L19.0934 12.5433C19.0964 13.0095 18.7158 13.395 18.2412 13.398L16.6342 13.4081C15.735 13.4138 14.9066 12.7612 14.826 11.8624C14.7727 11.3382 14.9694 10.8457 15.317 10.5021C15.623 10.1838 16.0465 9.99791 16.5128 9.99497L18.2197 9.9842C18.6943 9.98121 19.0797 10.3618 19.0826 10.8281Z" fill="#1FCB4F"/>
<path d="M13.5775 11.9786C13.4971 11.1048 13.808 10.2453 14.4369 9.61679C14.9664 9.07222 15.7054 8.75115 16.5047 8.74611L16.9793 8.74311C17.2124 8.74164 17.4027 8.54893 17.368 8.31601C17.133 6.70214 15.7263 5.46203 14.0527 5.47259L5.72649 5.52513C3.88639 5.53674 2.4054 7.03654 2.41701 8.87663L2.45379 14.705C2.4654 16.5451 3.9652 18.0261 5.80529 18.0145L14.1315 17.9619C15.8134 17.9513 17.196 16.6936 17.4106 15.0769C17.4425 14.8436 17.2497 14.6533 17.0166 14.6547L16.6419 14.6571C15.06 14.6671 13.7203 13.4932 13.5775 11.9786ZM11.585 10.2759L6.58932 10.3075C6.24794 10.3096 5.96312 10.0366 5.96091 9.68692C5.9587 9.33722 6.24006 9.06067 6.58144 9.05852L11.5772 9.027C11.9185 9.02484 12.2034 9.30615 12.2056 9.64752C12.2077 9.9889 11.9264 10.2738 11.585 10.2759Z" fill="#1FCB4F"/>
<path d="M12.551 3.67517C12.7689 3.89861 12.5795 4.23287 12.2631 4.23486L5.74368 4.276C4.83612 4.28173 3.98853 4.55352 3.28369 5.01593C2.96028 5.22614 2.51757 5.00411 2.67351 4.64509C3.1329 3.55141 4.21885 2.78684 5.47611 2.77891L10.1555 2.74938C11.1213 2.74329 11.981 3.07925 12.551 3.67517Z" fill="#1FCB4F"/>
</svg>
